<?xml version="1.0" encoding="UTF-8"?>
<svg width="761.49" height="487.37" version="1.1" viewBox="0 0 761.49 487.37" xml:space="preserve" xmlns="http://www.w3.org/2000/svg" xmlns:cc="http://creativecommons.org/ns#" xmlns:dc="http://purl.org/dc/elements/1.1/" xmlns:rdf="http://www.w3.org/1999/02/22-rdf-syntax-ns#"><metadata><rdf:RDF><cc:Work rdf:about=""><dc:format>image/svg+xml</dc:format><dc:type rdf:resource="http://purl.org/dc/dcmitype/StillImage"/><dc:title/></cc:Work></rdf:RDF></metadata><g transform="matrix(1.3333 0 0 -1.3333 -1387.7 1599.9)"><path d="m1447.5 1172.7-11.603-18.149c10.711 0.089 22.014 2.9285 32.43 5.2292 8.0807 1.7848 17.104 3.3111 24.694 6.6716l-12.496 11.603c5.3375-1.4565 10.592-3.8257 15.768-5.779 2.0172-0.7605 4.6741-2.3415 6.843-2.357 2.2701-0.016 5.0609 1.6513 7.1405 2.4831 5.4655 2.1857 10.913 4.5385 16.066 7.3968 4.2576 2.3608 8.6073 4.9696 11.844 8.6693 1.5085 1.7224 2.7967 4.4692 0.848 6.3912-3.7131 3.6564-10.604 3.3214-15.37 3.7751-16.108 1.533-31.451-3.1662-47.3-4.6105-1.8803-0.1711-2.877 2.6237-4.198 3.6972-2.7937 2.2715-6.7448 2.8509-10.089 1.529-2.52-0.9959-4.689-3.1755-5.6261-5.7241-0.4553-1.2393-0.2291-3.6084-1.3121-4.4364-1.6304-1.247-4.7901-1.5141-6.7478-2.1164-4.8853-1.5017-9.8003-2.9944-14.578-4.8101-9.3868-3.567-19.053-7.3103-27.372-13.042-2.8711-1.9774-7.0512-4.6613-7.8724-8.3229-0.4701-2.0904 1.1068-3.4774 2.8146-4.3515 3.2251-1.6516 7.4171-2.3165 11.008-2.4798 2.5944-0.1176 5.7868-0.8908 8.3306-0.1574 2.8354 0.817 5.6559 3.7565 8.0331 5.4595 6.2092 4.4494 12.246 9.4186 18.744 13.43m24.099 20.231-12.496-2.9752c0.5147 6.3041 9.6545 9.6272 12.496 2.9752m1.4876-14.281-0.2975 1.7851c3.4423 0.789 7.0453 2.074 10.116 3.8299 0.8182 0.4673 2.5587 1.2838 2.7432 2.3278 0.1487 0.8594-1.2734 1.0993-1.8506 1.1899-1.9518 0.3063-4.2843 0.2275-6.248 0.04-6.5246-0.6235-13.344-2.3157-19.339-4.9663-1.0383-0.4586-5.9772-2.4153-5.0817-4.0537 0.4731-0.8626 2.1749-0.7652 2.9991-0.8735 3.3471-0.4398 6.7626 0.6931 10.116 0.7209l0.2975-1.4876c-3.9065-0.7361-8.2294-1.4011-12.198-0.7618-1.6929 0.2726-4.1147 1.2515-3.3441 3.4392 0.6664 1.8899 3.1448 3.1205 4.8317 3.9323 4.8615 2.3385 10.196 3.8051 15.471 4.86 3.8975 0.7797 8.2235 1.4579 12.198 0.9401 1.3983-0.1823 3.4185-0.4962 3.9838-2.0097 0.6872-1.8316-1.1633-3.3076-2.4962-4.1701-3.4751-2.2486-7.8814-3.8123-11.901-4.7424m7.4381-0.2976-0.2976-0.2975 0.2976 0.2975m-283.83-80.033-15.471 24.992c7.4883-5.7046 14.379-12.507 21.421-18.759 2.8628-2.5414 6.3036-6.8117 9.8182-8.3341 3.3864-1.4668 8.5808-0.5766 12.198-0.5766 5.8849 0 20.286 0.8265 18.604 9.8182-0.753 4.0281-3.9094 7.6052-6.704 10.413-6.1393 6.1688-13.406 11.203-20.826 15.708-20.386 12.375-42.572 21.689-65.157 29.217-10.782 3.5938-22.321 7.7016-33.62 9.2232l6.843-5.3554 13.686-10.116c-9.2573 3.5917-18.192 8.723-27.074 13.164-3.5904 1.7952-7.4749 4.2129-11.306 5.3941-5.5304 1.7051-12.416 1.3754-18.149 1.3754-4.985 0-10.542-0.3193-15.174-2.3433-2.0188-0.8821-4.3276-2.4569-4.6967-4.7972-0.6929-4.3932 2.442-8.6097 5.3035-11.603 6.3198-6.6118 13.696-11.896 21.41-16.756 23.266-14.656 49.613-24.969 75.868-32.847 7.3717-2.2117 14.798-4.2025 22.314-5.8623 3.4649-0.7655 7.1539-1.883 10.711-1.9565m251.11 74.678-0.2975-0.2975 0.2975 0.2975m24.397-15.769c0.5147-2.2496 2.6033-6.045 2.1034-8.3041-0.3005-1.3683-2.2581-2.4578-3.0555-3.5968-1.7702-2.531-2.0826-6.0429-1.1008-8.9256 1.1068-3.2465 4.0344-5.7695 7.4082-6.4062 1.3121-0.2472 2.9009 0.1764 4.1148-0.4332 4.8109-2.417 10.63-12.148 15.224-4.1688h0.2975c3.2251-3.5185 8.3008-5.9984 12.198-8.7543 8.5983-6.0801 17.212-12.153 25.884-18.124 1.077-0.7405 2.5319-1.5209 2.88-2.8782 0.6069-2.3572-1.205-6.5383 1.8803-7.4335v-12.198l0.723-4.6074 4.6324-0.7479v-46.711h3.2727v46.711l4.5402 0.8042 0.5176 3.9561v10.116c7.9736-4.5414 15.415-10.638 22.909-15.94 8.6876-6.1471 17.432-12.223 26.182-18.282 1.4728-1.0199 7.3994-6.6032 8.9108-3.8163 0.8479 1.5584-1.3359 2.8047-2.3653 3.5188-3.3769 2.3459-6.7478 4.7061-10.116 7.0646l-29.157 20.398c-4.4777 3.135-9.5296 5.9965-13.656 9.5796-2.9485 2.5613 1.559 9.9122-1.3478 12.82-1.0056 1.0033-2.7491 0.7242-4.0373 0.7242-3.1657 0-10.279 1.321-12.496-1.1901h-0.2975c-3.8916 4.3807-10.369 7.5627-15.174 10.925-7.6135 5.3283-15.418 12.463-23.802 16.447 2.9395 6.3351-3.4929 8.4377-7.7177 12.099-1.9309 1.6739-2.404 4.6407-4.3111 6.5588-1.6155 1.6296-4.201 1.989-5.6559 3.5105-1.8029 1.8901-0.8449 7.0753-3.0109 8.4413-1.2377 0.7792-5.0162-0.8025-6.3788-1.155m-333.82-3.2728-0.8926 0.2976 0.8926-0.2976m14.281-18.446 0.595 1.7851c5.057-1.6456 10.386-3.5441 15.769-3.57 1.3933-0.01 4.7603-0.4433 5.1528 1.5037 0.3543 1.7563-2.7792 3.6967-3.9627 4.5295-4.9564 3.4872-10.658 5.8739-16.364 7.8477-4.7711 1.6503-9.5993 2.556-14.579 3.2037-1.351 0.1758-4.5565 0.3683-5.3146-1.136-0.7271-1.4426 2.0169-3.4607 2.9345-4.2063 3.7806-3.0725 8.5787-5.2316 13.091-6.9822l-0.5951-1.4876c-4.9683 1.1773-10.787 4.3973-14.578 7.7873-1.4453 1.2921-3.428 3.1233-2.8449 5.2991 0.4883 1.8229 2.6974 2.2987 4.3325 2.373 3.9336 0.1789 7.787-0.3481 11.603-1.2897 7.9031-1.9506 16.122-4.9415 22.909-9.5159 2.1687-1.4617 6.5012-4.4238 5.1001-7.6011-0.941-2.1341-4.0439-2.113-5.9926-2.1106-6.0326 0.01-11.488 2.2356-17.256 3.5703m144.6-16.959-8.5537-10.413-5.4298-7.1405c4.982-1.4728 11.479-0.5951 16.661-0.5951 13.13 0 27.642 0.1143 40.463 3.2728l-5.6529 13.686c3.3245-2.8952 6.9352-5.4949 10.413-8.2044 1.4787-1.1511 3.2133-3.0407 5.0579-3.5393 2.1421-0.5796 5.6231 0.8408 7.7355 1.3683 6.4681 1.6143 12.788 3.3777 19.041 5.71 4.6562 1.7372 9.6724 4.0326 13.388 7.3949 1.8565 1.6795 3.5167 4.2518 2.2433 6.7912-1.8 3.5973-7.2833 5.2685-10.871 6.2896-10.122 2.882-20.496 3.6779-30.942 4.1352-4.6443 0.2035-9.3183 0.4784-13.983 0.2743-2.0032-0.088-4.8785-0.9321-6.8002-0.1065-1.2799 0.5501-1.7434 2.9115-2.5804 3.9847-1.8416 2.3608-4.8802 3.7681-7.8756 3.7681-3.3924 0-6.71-1.7738-8.4889-4.6595-0.95-1.5411-0.9217-4.5464-2.83-5.1402-4.2543-1.3237-9.2693-1.3323-13.673-2.1264-10.389-1.8738-20.825-4.3361-30.645-8.264-5.0189-2.0076-12.046-4.5815-14.946-9.4611-4.1305-6.9504 8.5638-10.411 13.161-11.566 2.398-0.6025 5.8641-1.9324 8.3306-1.4073 2.6666 0.568 5.4193 3.0662 7.7355 4.4634 6.2509 3.7705 12.433 8.3957 19.041 11.485m28.562 18.744-12.793-1.1901c1.0036 6.6948 10.68 7.8078 12.793 1.1901m-1.4876-16.959-0.2975 1.4876c3.8246 0.9211 7.621 1.3519 11.306 2.8577 0.9288 0.3796 3.2191 1.171 3.0436 2.4965-0.2559 1.9306-4.2837 2.2198-5.7213 2.42-6.2762 0.8747-12.812 0.3657-19.041-0.7598-2.903-0.5246-5.9906-1.2797-8.6281-2.6331-0.7177-0.3683-2.302-1.1401-2.1511-2.1606 0.18-1.2169 2.3956-1.653 3.3411-1.8842 3.6822-0.9003 7.5371-0.9315 11.306-0.9315v-1.4876c-4.2893 0-8.6302-0.2241-12.793 1.0234-1.6194 0.4853-3.8677 1.429-3.818 3.4394 0.057 2.3159 2.8556 3.5792 4.7106 4.256 5.2322 1.9092 11.089 3.0413 16.661 3.1775 4.4413 0.1089 9.041 0.2488 13.388-0.7851 1.6673-0.3966 3.8886-1.08 4.6532-2.7851 0.8896-1.9806-1.3745-3.5941-2.8681-4.3801-3.791-1.9946-8.8054-3.2626-13.091-3.351m-143.11 3.2727-0.2976-0.2975 0.2976 0.2975m-46.413-11.306c-1.6143-5.6059-6.261-8.1435-9.232-12.793-1.1752-1.839 0-3.8785-0.8622-5.4816-2.2559-4.1745-7.4393-8.0458-10.721-11.477-3.2909-3.4417-6.5565-6.9281-9.803-10.413-1.7655-1.8952-3.4646-4.3727-5.6797-5.771-2.4647-1.5558-8.1387-0.477-11.008-0.477-1.3932 0-3.3283 0.3407-4.2834-0.9366-1.2989-1.7378-0.9074-8.5787-0.3823-10.666 0.3407-1.354 2.0428-2.0657 1.1663-3.5726-1.686-2.8991-5.1447-5.6404-7.5076-8.0319-4.0897-4.1394-8.0484-8.4787-11.953-12.793-1.4507-1.6033-6.2239-4.9623-5.7878-7.4216 0.7091-3.9993 6.2056 2.7148 7.0241 3.5539 6.3665 6.5267 12.3 13.485 18.748 19.934l2.077-5.9507 0.01-74.677c-1.075 0-2.3162 0.1036-3.1436-0.7241-1.573-1.573-1.1934-9.083-0.5951-11.164 0.2833-0.9857 1.2966-1.4451 1.5617-2.4239 0.2934-1.0839 0.094-2.4224 0.094-3.5393h-26.777c-4.0216 0-8.7374 0.8045-12.198-1.6771-3.8841-2.7851-3.8677-6.8195-3.8677-11.116h0.2975c3.6527 4.6946 8.9027 4.4628 14.281 4.4628h30.347v-1.4876c-11.539 0-23.626 1.0428-35.108-0.051-4.9028-0.4668-9.5777-2.766-9.8181-8.28h-0.8926v-94.909h154.41v58.909c8.1146-0.6634 16.238-2.7431 24.397-3.5196 19.055-1.8149 39.102-1.3984 58.017 1.7107 6.8548 1.1276 13.711 2.4486 20.231 4.9121 2.9868 1.1246 6.3916 2.5943 8.3305 5.2274-13.738-7.6493-29.07-9.964-44.628-11.035-17.964-1.2377-35.978-1.1187-53.851 1.434-7.7751 1.1098-15.54 2.6926-22.909 5.4506-3.8779 1.4519-8.2321 3.6625-10.558 7.2518-1.3344 2.0597-0.4505 6.6927-0.4505 9.097v23.802h-77.355v1.4876h77.355v8.3306h-75.273c0 1.1169-0.199 2.4554 0.094 3.5393 0.2648 0.9788 1.2785 1.4382 1.5617 2.4239 0.5983 2.0809 0.978 9.5909-0.595 11.164-0.8274 0.8277-2.0687 0.7212-3.1436 0.7241v49.984l0.017 24.99 1.8946 3.2795 0.2145 7.7186 1.7411 4.7719h3.8678c0-2.2513 0.5344-10.671 4.7053-6.7751 0.4394 0.4106 0.789 0.9122 1.1059 1.4201 2.453 3.9311 3.1219 8.8521 3.1144 13.388 0 1.869-0.089 6.1429-2.6789 6.3872-3.4333 0.324-3.8451-5.0147-5.3315-6.8876-0.9036-1.1386-3.1957-0.6897-4.4854-0.6897 3.5824 5.0858 8.8191 9.4261 13.064 13.984 4.3352 4.6535 8.4888 10.154 13.388 14.21 1.4501 1.2005 3.6488 0.2103 5.3822 1.2624 1.692 1.0273 2.8654 2.7398 4.192 4.1638 3.3995 3.6493 6.7966 7.3633 7.7088 12.496l-9.5207 3.2728m182.98-14.579v-7.438c-1.2561 0-3.2748-0.3796-4.3809 0.3059-1.011 0.6263-1.2282 2.8041-2.7331 2.617-1.2052-0.15-1.653-1.9622-1.8654-2.9229-0.5876-2.6568-0.8575-6.1735 0.6753-8.6105 1.4832-2.3582 3.0583 0.037 3.2463 1.7675h5.0578c0-3.2658-0.742-7.582 0.2393-10.711 1.0743-3.4257 5.0626-4.1906 7.7938-2.3802l2.6337-5.3556-0.2018-9.2229 1.6938-5.3554 0.04-27.074 6.5454 1.19 0.3148 25.884 1.4067 3.8678 0.064 11.603c2.5527 0.1116 4.5758 1.2038 5.0578 3.8678h2.3802c0.2469-1.9169 0.8926-6.5071 3.5673-6.4333 2.6866 0.074 3.3322 5.062 3.5226 7.0283 0.3422 3.5263 0.4076 8.5621-1.7256 11.586-2.9395 4.1683-5.0965-3.2656-5.3643-5.3378h-2.3802c0 2.4007 0.723 6.2134-0.598 8.3186-2.2492 3.5896-11.394 2.4772-14.873 1.4996 0 3.7282 0.8697 8.7274-0.595 12.198l-9.5207-0.8926m139.83-83.901v-0.2975c5.4505-3.8473 14.665-4.1183 21.124-4.8097 16.935-1.8131 33.84-2.3308 50.876-2.3308v0.2975h-3.2728l-0.8925 12.496h0.2975c1.1931-3.2591 3.7458-6.3298 5.6529-9.2232 0.6426-0.9723 1.3597-2.5988 2.4783-3.0933 2.5617-1.1341 7.0037-0.013 9.72 0.1065 8.6549 0.3788 17.286 0.8602 25.884 2.0556 4.4896 0.6239 9.0238 1.2514 13.388 2.5054 1.7464 0.5016 3.8648 0.8777 4.7603 2.5911-3.9154 2.2764-8.6817 2.9538-13.091 3.6934-9.2916 1.5585-18.628 1.9128-27.967 2.8015-2.8145 0.2678-5.8611-0.252-8.6281 0.4427-1.8743 0.4704-3.3352 2.6956-4.549 4.0707-2.4784 2.8128-4.9448 5.6728-8.8394 6.2479v10.116h7.1405c0.042-1.958 0.9878-9.745 4.4509-8.0202 2.8265 1.4084 2.9871 7.1176 2.9871 9.8054 0 2.5203-0.2172 8.4281-3.0317 9.5959-3.5673 1.4816-4.3646-6.0358-4.4063-8.1083h-7.1405v19.041c0 1.5599 0.717 5.8144-1.7762 5.8144-2.4873 0-1.4965-7.1208-1.4965-8.7896v-21.422c0-1.8283 0.7914-6.1519-0.476-7.5838-1.08-1.2207-3.2877-1.4989-4.5819-2.5953-2.5348-2.1472-4.9834-6.8694-8.0598-8.0878-3.5643-1.4108-9.5326-0.6849-13.362-0.7789-8.5477-0.2092-17.479-1.2912-25.884-2.9121-3.8261-0.7382-8.0657-1.3231-11.306-3.6289m-281.16 1.4876c16.718 6.8591 34.169 9.5117 52.066 10.737 16.513 1.1309 33.097 0.5493 49.388-2.6458 10.067-1.9744 19.096-6.3134 28.86-8.984 0 11.098-15.321 12.645-23.802 14.34-25.671 5.1335-53.352 4.7065-79.14 0.707-6.7311-1.044-13.656-2.5852-19.934-5.2739-4.3238-1.8521-7.4374-3.8928-7.438-8.881m137.75-4.1653c3.3388 1.3856 6.2869 3.1963 9.8182 4.2483 16.81 5.0091 35.89 5.4494 53.256 4.6889 12.904-0.5649 26.173-0.9633 38.678-4.6889 3.5315-1.052 6.48-2.8627 9.8181-4.2483 0 4.2343-2.5497 5.9254-6.2479 7.521-5.2988 2.2868-11.02 3.3751-16.661 4.4382-21.978 4.1423-46.181 3.392-68.132-0.4303-6.5523-1.1409-20.528-3.1388-20.529-11.529m-136.86-100.56c4.4646 1.6896 8.4088 4.1912 13.091 5.5259 22.917 6.5323 47.862 6.5353 71.405 4.9138 15.376-1.0588 31.837-3.0079 44.926-11.63v95.802c0 1.7726 0.7479 5.7695-0.3059 7.2449-1.0106 1.4153-4.3613 2.1434-5.9421 2.7447-5.6395 2.1451-11.399 3.9246-17.256 5.3702-25.104 6.1953-52.261 5.4107-77.653 1.4727-7.0373-1.0916-14.075-3.0858-20.826-5.3283-1.8271-0.6069-5.9465-1.188-7.1322-2.7865-1.0594-1.4281-0.3058-5.4929-0.3058-7.2301v-96.099m137.45 10.711c16.447 7.6879 34.304 9.5206 52.364 9.5206 15.956 0 32.51-0.2829 47.901-5.0653 4.0046-1.2448 7.2327-3.4628 11.008-5.0504v80.628c0 2.2356 0.5712 5.4289-0.6218 7.4262-1.1782 1.9719-3.8946 2.9409-5.9237 3.7457-5.6648 2.2478-11.874 3.1056-17.851 4.0749-21.056 3.4146-44.116 3.1311-65.157-0.2484-5.2054-0.8364-10.492-1.8289-15.471-3.6009-1.8699-0.6656-4.4962-1.5013-5.7297-3.1639-1.119-1.5081-0.5183-4.66-0.5183-6.4484v-81.818m230.58 82.413v-7.438c-1.8149 0-5.4328 0.7084-6.6645-0.9366-0.6635-0.8875-0.476-2.1889-0.476-3.2287 0-2.4867-1.1723-8.3654 1.7851-9.2231 0-3.7723-1.6721-10.664 3.5702-10.711v-106.51c-1.437 0-3.5345 0.3719-4.6651-0.723-0.7765-0.7527-0.6873-1.8535-0.6902-2.8472-0.01-2.4933-0.7081-6.2748 0.1785-8.6162 0.3124-0.8212 1.1097-1.3062 1.4281-2.1214 1.1901-3.0615-1.1455-6.474 3.7487-6.5186v-10.413h6.843v10.413c4.796 0.045 2.2374 3.5375 3.4513 6.5067 0.357 0.8718 1.3239 1.2526 1.6839 2.1362 0.8152 2.0023 1.0027 9.8242-0.5682 11.395-1.1187 1.1187-3.13 0.7884-4.567 0.7884v106.51c5.3673 0.048 2.4605 6.0233 3.3679 9.5091 0.2827 1.0904 1.3627 1.6595 1.7673 2.6937 0.7736 1.9851 1.0443 10.028-0.7408 11.378-1.446 1.0931-4.4569 0.5183-6.1795 0.5183v7.438h-3.2727m-31.24-0.595c0-2.5736-0.5415-5.8314 0.095-8.3262 0.2707-1.0675 1.321-1.6342 1.5947-2.6937 0.8093-3.1076-0.9193-6.195 3.6655-6.2363v-65.752c-1.3538 0-3.5167 0.4016-4.6354-0.5183-1.916-1.5757-1.4489-8.8854-0.8033-11.081 0.3302-1.1183 1.4757-1.6274 1.7732-2.713 0.4522-1.6501-0.4612-3.7476 0.4463-5.2798 0.7616-1.2883 2.6896-0.5624 3.124-2.1452 1.0889-3.9689 0.095-9.5474 0.095-13.668v-29.454c-2.3534 0-5.1323-0.4523-7.4381-0.01-1.6185 0.3123-2.6925 1.6244-4.4598 0.8985-2.157-0.8866-3.2102-4.0374-4.2605-5.9475-2.8443-5.1798-6.2628-10.309-8.5359-15.769h10.116l4.0493 0.3065 1.6721 2.9663 3.2043 7.7355 5.6529-0.2975v-10.711h6.5454v10.711l5.2751-0.3065 1.6274-2.9663 2.9157-7.438h7.438c-1.8952 4.8853-3.9451 9.7111-5.8909 14.578-0.7676 1.9191-1.3864 4.7961-3.3441 5.8553-2.0351 1.1008-5.7511 0.3927-8.0212 0.3927 0 13.998-1.2198 28.607 0.018 42.545 0.1993 2.2493 2.3325 1.1752 3.2459 2.7224 0.8866 1.4935 0.3065 4.505 0.3065 6.2033 3.2489 0.9348 2.0856 6.5564 2.0826 9.2231 0 1.141 0.1131 2.5483-0.7468 3.4411-1.1186 1.1598-3.4453 0.7242-4.9061 0.7242v65.752c4.6651 0.042 2.8324 3.0356 3.6655 6.2351 0.2856 1.1074 1.434 1.6176 1.794 2.7033 0.7944 2.3974 0.1934 5.8037 0.1934 8.3178h-17.554m-84.793-55.636v-4.7603h63.669c-1.9101 6.6186-10.431 4.7603-15.769 4.7603h-47.901m0-6.2479v-27.074c-2.2493-0.3657-3.6952-3.406-5.6529-4.6211-4.2069-2.6134-9.1874-4.0058-13.984-5.0721-19.871-4.4123-39.407-3.1002-59.504-3.1002v-3.5703h143.1v43.438h-63.967m-67.24-13.812c-12.3-1.615-24.562-1.1934-36.595-5.0341-2.875-0.9175-10.581-2.7405-10.357-6.7406 0.1214-2.1684 2.7048-3.4114 4.4069-4.2296 4.6868-2.2531 10.067-3.5542 15.174-4.4226 21.076-3.5848 43.075-4.2067 64.264-1.0851 7.0245 1.0348 14.296 2.3388 20.826 5.2334 2.0351 0.9021 6.1379 2.8178 4.8764 5.6895-1.8655 4.2388-10.946 5.9793-14.992 6.8474-10.214 2.1907-20.279 2.8872-30.645 3.5968-5.4684 0.3745-11.502 0.8613-16.959 0.1449m-131.21-7.4381c-13.992-1.8372-27.981-1.5277-41.653-5.8819-3.0082-0.9584-12.237-3.1948-11.839-7.3803 0.2422-2.5409 3.2382-4.1177 5.2935-5.0906 5.5868-2.645 11.796-4.0374 17.851-5.0995 24.905-4.3647 51.154-4.6919 76.165-0.9878 7.7549 1.1484 16.118 2.5617 23.207 6.0486 2.1716 1.0681 7.0283 3.3932 5.347 6.605-0.8095 1.5468-2.9671 2.467-4.4544 3.2108-4.1329 2.0666-8.6249 3.1942-13.091 4.2778-11.372 2.7586-22.917 3.3593-34.512 4.153-7.1414 0.4892-15.194 1.0797-22.314 0.1449m98.777-15.345v-13.686c-3.2793 0.027-6.5428 0.7378-9.8182 0.8806-8.1574 0.357-16.329-0.071-24.397-1.2585-23.99-3.5345-45.765-15.635-62.777-32.647-6.1708-6.1706-13.166-13.903-16.661-22.017h31.537c3.7368 0 9.8925-1.193 13.362 0.1785 3.0091 1.1931 5.9623 6.1915 8.3571 8.4229 5.9653 5.5576 12.408 10.583 19.339 14.885 19.629 12.178 43.576 18.232 66.645 16.652 7.4766-0.5117 14.698-2.032 22.016-3.5434v0.2975c-8.4823 3.5494-15.971 8.9821-24.694 12.184-3.4156 1.2525-6.8906 2.398-10.413 3.3233-1.5471 0.4046-3.9683 0.4433-5.2607 1.434-0.9476 0.723-0.6897 2.2433-0.6897 3.2906 0 2.2493 1.3951 8.1312-0.01 9.9372-0.9411 1.2109-5.0445 1.2793-6.5371 1.6661m20.826-8.6281c0.6367-3.2935 3.7458-4.7216 6.843-4.7603 7.8307-0.092 15.67 0 23.504 0h85.091c6.9233 0 14.245-0.6873 21.124 0.051 2.8086 0.3034 5.1322 1.9547 5.9504 4.7097h-142.51m67.835-6.2479v-39.868c-10.488 6.4741-20.094 12.877-31.835 17.051-29.803 10.598-65.06 7.5005-92.529-8.1699-7.5282-4.2962-14.386-9.2826-20.826-15.078-3.073-2.7669-6.3163-5.4357-8.033-9.2737h169.29c-2.3771 3.4751-7.7474 6.3551-9.3004 10.142-1.4162 3.4513-0.2202 9.6308-0.2202 13.362v31.835z"/></g></svg>
